<svg width="56" height="61" viewBox="0 0 56 61" fill="none" xmlns="http://www.w3.org/2000/svg">
<path d="M12.1309 16.0749H1.66302C1.37984 21.8313 1.74603 27.3289 4.0017 31.3422C6.13043 35.131 10.0217 37.6357 16.7936 37.8261C16.0222 36.8789 15.285 35.7608 14.6356 34.4133C10.5685 33.8664 8.21034 32.182 6.85791 29.6529C5.50549 27.1287 5.21742 23.8282 5.21742 19.9955C5.21742 19.5756 5.55919 19.2338 5.97908 19.2338H12.1309V16.0749ZM27.8328 16.8414L29.7271 21.4553L34.7072 21.8313L30.894 25.0634L32.0756 29.9068L27.8328 27.28L23.59 29.9068L24.7715 25.0634L20.9583 21.8313L25.9384 21.4553L27.8328 16.8414ZM0.940427 14.5516H12.126V11.7003H10.593C9.6653 11.7003 8.82553 11.3194 8.21523 10.7091L8.21034 10.7042C7.60004 10.0939 7.21921 9.25417 7.21921 8.32651V6.42725C6.62356 6.31007 6.08649 6.01713 5.67149 5.60212C5.12954 5.06018 4.79265 4.31317 4.79265 3.48804V2.15026C4.79265 1.69619 4.97818 1.28119 5.27601 0.983359C5.5836 0.685532 5.99861 0.5 6.45267 0.5H49.2129C49.6669 0.5 50.0819 0.685532 50.3798 0.983359C50.6776 1.28119 50.8631 1.69619 50.8631 2.15026V3.49292C50.8631 4.31805 50.5262 5.06506 49.9843 5.60701C49.5693 6.02201 49.0322 6.31496 48.4366 6.43213V8.33139C48.4366 9.25417 48.0557 10.0988 47.4454 10.7091L47.4406 10.714C46.8302 11.3243 45.9905 11.7051 45.0628 11.7051H43.5297V14.5565H55.062C55.4819 14.5565 55.8237 14.8982 55.8237 15.3181V15.3279C56.1752 21.5774 55.8237 27.6218 53.2799 32.099C50.702 36.6396 45.9514 39.53 37.5683 39.3494C36.7725 40.0671 35.9669 40.6774 35.2101 41.2584C32.5638 43.2797 30.5718 44.803 32.1195 49.4706H34.4338C35.3566 49.4706 36.1964 49.8466 36.8067 50.4569C37.417 51.0672 37.7929 51.907 37.7929 52.8297V54.1822H38.1249C39.033 54.1822 39.863 54.5532 40.4636 55.1538C41.0641 55.7543 41.4352 56.5794 41.4352 57.4924V59.7383C41.4352 60.1582 41.0934 60.5 40.6735 60.5H14.9871C14.5672 60.5 14.2255 60.1582 14.2255 59.7383V57.4924C14.2255 56.5843 14.5965 55.7592 15.1971 55.1586L15.202 55.1538C15.8025 54.5532 16.6276 54.1822 17.5358 54.1822H17.8678V52.8297C17.8678 51.907 18.2437 51.0672 18.854 50.4618L18.8589 50.4569C19.4692 49.8515 20.309 49.4706 21.2269 49.4706H23.8292C25.2109 45.0667 23.3995 43.641 20.8949 41.6685C20.0453 40.9996 19.1177 40.2722 18.1851 39.3543C9.89966 39.491 5.21254 36.6055 2.67368 32.0892C0.15924 27.6072 -0.172764 21.5725 0.17877 15.3279V15.3181C0.17877 14.8934 0.520539 14.5516 0.940427 14.5516ZM25.416 49.4657H30.5279C28.9069 44.1586 31.2309 42.3862 34.2922 40.0476C37.6513 37.4843 42.0162 34.1545 42.0162 23.1983V11.7198H13.6494V22.9005C13.8349 27.1531 14.5477 30.3023 15.5291 32.7142C16.5007 35.0968 17.7506 36.7617 19.0298 38.0555C19.9623 39.0027 20.9388 39.7693 21.8323 40.4723C24.7471 42.7622 26.8709 44.4369 25.416 49.4657ZM31.5873 50.9891H21.2269C20.7191 50.9891 20.2601 51.1941 19.9281 51.5261L19.9233 51.531C19.5913 51.863 19.3862 52.322 19.3862 52.8297V54.1822H36.2696V52.8297C36.2696 52.3268 36.0645 51.8679 35.7276 51.531C35.3956 51.199 34.9367 50.9891 34.4289 50.9891H31.5873ZM37.0361 55.7006H17.5358C17.0426 55.7006 16.5935 55.9008 16.2712 56.223L16.2663 56.2279C15.9441 56.5501 15.7439 56.9993 15.7439 57.4924V58.9767H39.9119V57.4924C39.9119 56.9993 39.7117 56.555 39.3846 56.2279V56.223C39.0623 55.9008 38.6131 55.7006 38.12 55.7006H37.0361ZM43.5395 19.2338H50.2528C50.6727 19.2338 51.0145 19.5756 51.0145 19.9955C51.0145 23.8379 50.6678 27.1482 49.2519 29.6724C47.8409 32.182 45.4339 33.8567 41.3717 34.4084C40.6979 35.7706 39.9167 36.8838 39.0867 37.8309C45.8879 37.6503 49.8085 35.1456 51.9665 31.352C54.2466 27.3386 54.6275 21.8362 54.3492 16.0798H43.5395V19.2338ZM49.4863 20.7571H43.5395V23.1983C43.5395 27.2556 42.9731 30.3364 42.0845 32.7484C45.053 32.1625 46.8595 30.8296 47.9288 28.9254C49.0908 26.8455 49.4423 24.0381 49.4863 20.7571ZM12.1309 20.7571H6.74074C6.7798 24.043 7.07762 26.8553 8.19081 28.9352C9.21124 30.8393 10.964 32.1722 13.9179 32.7532C12.9756 30.2583 12.3067 27.0848 12.126 22.9298V22.8956H12.1212V20.7571H12.1309ZM49.2129 2.02331H6.45267C6.4185 2.02331 6.38432 2.03796 6.35991 2.06237C6.3355 2.08678 6.32085 2.11608 6.32085 2.15514V3.4978C6.32085 3.90304 6.48685 4.26922 6.75538 4.53776C7.02392 4.80629 7.3901 4.97229 7.79534 4.97229H47.8702C48.2754 4.97229 48.6416 4.80629 48.9102 4.53776C49.1787 4.26922 49.3447 3.90304 49.3447 3.4978V2.15026C49.3447 2.11608 49.33 2.0819 49.3056 2.05749C49.2812 2.03796 49.247 2.02331 49.2129 2.02331ZM46.9181 6.49072H8.75229V8.33628C8.75229 8.84405 8.95735 9.30788 9.29424 9.63988C9.63113 9.97189 10.0901 10.1818 10.5978 10.1818H45.0726C45.5804 10.1818 46.0442 9.97677 46.3762 9.63988C46.7082 9.30299 46.9181 8.84405 46.9181 8.33628V6.49072Z" fill="#444444"/>
</svg>
