<svg width="66" height="61" viewBox="0 0 66 61" fill="none" xmlns="http://www.w3.org/2000/svg">
<path d="M19.3172 54.2881C19.094 52.1184 18.32 50.0417 17.0688 48.2551C15.8622 46.5702 14.2941 45.4221 12.6464 45.4221C10.9986 45.4221 9.42525 46.5702 8.21867 48.2551C6.9674 50.0417 6.19345 52.1184 5.97026 54.2881H19.3172ZM60.9844 15.151C60.684 14.6918 60.224 14.3603 59.6933 14.2207C59.1626 14.0811 58.599 14.1433 58.1115 14.3953C57.6241 14.6473 57.2474 15.0711 57.0545 15.5848C56.8615 16.0985 56.866 16.6655 57.067 17.1761C57.1219 17.3055 57.1877 17.43 57.2636 17.5482C58.0042 18.6847 58.6444 19.8834 59.1772 21.1308C59.3939 21.621 59.7809 22.0162 60.2666 22.243C60.7522 22.4698 61.3036 22.5129 61.8187 22.3643C62.3337 22.2158 62.7774 21.8857 63.0677 21.4351C63.358 20.9845 63.4752 20.4439 63.3976 19.9136C63.3661 19.7306 63.3126 19.5521 63.2381 19.382C62.6099 17.9146 61.8558 16.5043 60.9844 15.1669V15.151ZM57.2955 9.26156C57.3919 9.85066 57.271 10.4547 56.9551 10.9613C56.6393 11.4678 56.1501 11.8423 55.5787 12.0149L49.0035 14.0241C48.6931 14.1224 48.3662 14.1581 48.0419 14.1291C47.7176 14.1001 47.4022 14.0071 47.1141 13.8553C46.826 13.7036 46.5708 13.4962 46.3635 13.2452C46.1561 12.9941 46.0006 12.7044 45.906 12.3928C45.8114 12.0812 45.7796 11.754 45.8124 11.43C45.8452 11.106 45.9419 10.7918 46.097 10.5055C46.2522 10.2192 46.4625 9.96651 46.716 9.76211C46.9695 9.5577 47.261 9.40563 47.5737 9.31471L48.185 9.12336C44.9031 7.34474 41.2643 6.32418 37.5362 6.13671C33.808 5.94924 30.0852 6.59962 26.6415 8.04005C23.1977 9.48047 20.1205 11.6743 17.6361 14.4603C15.1516 17.2463 13.3231 20.5537 12.2849 24.1393H7.70307C8.77616 19.7286 10.8557 15.6262 13.7787 12.1533C16.7018 8.68043 20.3891 5.93129 24.552 4.1212C28.7148 2.3111 33.2401 1.48917 37.7735 1.71978C42.307 1.95039 46.7255 3.22727 50.6832 5.45043L50.0666 3.85582C49.8319 3.244 49.8498 2.564 50.1165 1.9654C50.3831 1.36681 50.8767 0.898657 51.4885 0.663938C52.1003 0.429219 52.7803 0.447158 53.3789 0.713809C53.9775 0.98046 54.4456 1.47398 54.6804 2.0858L57.1361 8.51209C57.2271 8.75417 57.2808 9.00866 57.2955 9.26687V9.26156ZM36.2785 56.0634C37.9597 56.0577 39.6371 55.9029 41.2909 55.601C41.8461 55.5808 42.3886 55.7699 42.811 56.1307C43.2335 56.4915 43.505 56.9978 43.5718 57.5493C43.6387 58.1008 43.496 58.6573 43.172 59.1086C42.848 59.5599 42.3664 59.8731 41.8225 59.9862C40.5262 60.2318 39.2162 60.3987 37.8997 60.4858C37.2034 60.5177 36.3051 60.4858 35.5928 60.4858C33.6411 60.4437 31.6985 60.2069 29.7938 59.7789V55.2395C31.9002 55.8028 34.0715 56.0869 36.252 56.0847L36.2785 56.0634ZM48.6368 52.8742C48.3706 53.0099 48.1345 53.1981 47.9429 53.4274C47.7513 53.6567 47.608 53.9223 47.5216 54.2084C47.4353 54.4945 47.4077 54.7951 47.4405 55.0921C47.4733 55.3891 47.5658 55.6764 47.7124 55.9368C47.8591 56.1971 48.0569 56.4251 48.294 56.6071C48.531 56.7891 48.8024 56.9212 49.0918 56.9956C49.3812 57.07 49.6827 57.0851 49.9781 57.04C50.2735 56.9949 50.5567 56.8905 50.8108 56.7332C52.2035 55.9461 53.5297 55.0466 54.776 54.0436C55.1761 53.718 55.4501 53.263 55.5508 52.7571C55.6514 52.2512 55.5725 51.726 55.3276 51.272C55.0827 50.8181 54.687 50.4637 54.2089 50.2701C53.7308 50.0764 53.2002 50.0556 52.7084 50.2112C52.4486 50.2945 52.2069 50.4261 51.9961 50.5992C50.9393 51.4466 49.8159 52.2074 48.6368 52.8742ZM57.3646 44.561C57.2107 44.8074 57.1068 45.0817 57.0589 45.3682C57.011 45.6548 57.02 45.9479 57.0854 46.231C57.1508 46.5141 57.2713 46.7815 57.4401 47.018C57.6088 47.2545 57.8225 47.4554 58.0689 47.6093C58.5665 47.9202 59.1673 48.0206 59.739 47.8885C60.3106 47.7564 60.8064 47.4027 61.1173 46.905C61.9666 45.5497 62.7043 44.1276 63.3232 42.6527C63.5258 42.1571 63.5421 41.6048 63.3691 41.098C63.1961 40.5912 62.8455 40.1642 62.3821 39.8959C61.9187 39.6275 61.3738 39.5361 60.8482 39.6383C60.3225 39.7406 59.8517 40.0297 59.5227 40.4522C59.4057 40.6037 59.3092 40.7699 59.2356 40.9465C58.7132 42.1994 58.0874 43.4066 57.3646 44.5556V44.561ZM61.1545 33.0691C61.1179 33.6136 61.2835 34.1525 61.6196 34.5824C61.9556 35.0124 62.4384 35.3033 62.9756 35.3995C63.5128 35.4956 64.0666 35.3901 64.5309 35.1033C64.9951 34.8165 65.3373 34.3686 65.4918 33.8452C65.5342 33.7014 65.561 33.5535 65.5716 33.404C65.6997 31.8119 65.6997 30.2122 65.5716 28.6201C65.5475 28.3305 65.4666 28.0484 65.3335 27.79C65.2004 27.5315 65.0177 27.3019 64.7958 27.1141C64.3477 26.7348 63.7673 26.549 63.1823 26.5977C62.5973 26.6463 62.0555 26.9253 61.6762 27.3734C61.2969 27.8215 61.1112 28.4019 61.1598 28.9869C61.2688 30.3419 61.2688 31.7035 61.1598 33.0585L61.1545 33.0691ZM31.7711 19.095C31.7994 18.51 32.0517 17.9582 32.4757 17.5542C32.8998 17.1501 33.463 16.9248 34.0487 16.9248C34.6344 16.9248 35.1977 17.1501 35.6217 17.5542C36.0458 17.9582 36.2981 18.51 36.3264 19.095V32.9628L45.809 37.1354C46.0949 37.2468 46.3553 37.4149 46.5746 37.6296C46.7938 37.8443 46.9673 38.1012 47.0847 38.3847C47.2021 38.6682 47.261 38.9725 47.2577 39.2793C47.2544 39.5862 47.1891 39.8892 47.0657 40.1701C46.9423 40.4511 46.7633 40.7041 46.5395 40.9141C46.3157 41.1241 46.0518 41.2866 45.7636 41.3919C45.4753 41.4972 45.1688 41.5431 44.8624 41.5268C44.5559 41.5106 44.256 41.4325 43.9805 41.2973L33.2541 36.5826C32.8202 36.4207 32.446 36.1305 32.1811 35.7507C31.9162 35.3709 31.7732 34.9195 31.7711 34.4564V19.095ZM7.03865 37.9699H18.2541C18.8232 36.8013 19.183 35.542 19.3172 34.2491H5.95963C6.0914 35.5424 6.45132 36.8022 7.02271 37.9699H7.03865ZM1.65949 56.7438C1.49841 56.7758 1.33224 56.7716 1.17294 56.7317C1.01365 56.6917 0.865195 56.617 0.738265 56.5128C0.611336 56.4085 0.50909 56.2775 0.438889 56.129C0.368687 55.9806 0.332275 55.8184 0.332275 55.6541C0.332275 55.4899 0.368687 55.3277 0.438889 55.1793C0.50909 55.0308 0.611336 54.8997 0.738265 54.7955C0.865195 54.6913 1.01365 54.6166 1.17294 54.5766C1.33224 54.5367 1.49841 54.5325 1.65949 54.5645H3.29663C3.4923 51.806 4.4349 49.1528 6.02342 46.8891C6.87303 45.6614 7.97937 44.633 9.26579 43.8753C7.98112 43.2063 6.86098 42.2604 5.98621 41.106C4.34781 38.9595 3.40721 36.3622 3.29131 33.6644H1.73391C1.57282 33.6964 1.40665 33.6923 1.24736 33.6523C1.08806 33.6124 0.93961 33.5376 0.812681 33.4334C0.685751 33.3292 0.583506 33.1981 0.513304 33.0497C0.443102 32.9012 0.406691 32.739 0.406691 32.5748C0.406691 32.4106 0.443102 32.2484 0.513304 32.0999C0.583506 31.9514 0.685751 31.8204 0.812681 31.7162C0.93961 31.612 1.08806 31.5372 1.24736 31.4972C1.40665 31.4573 1.57282 31.4532 1.73391 31.4851H23.697C23.8581 31.4532 24.0243 31.4573 24.1836 31.4972C24.3429 31.5372 24.4913 31.612 24.6183 31.7162C24.7452 31.8204 24.8474 31.9514 24.9176 32.0999C24.9878 32.2484 25.0243 32.4106 25.0243 32.5748C25.0243 32.739 24.9878 32.9012 24.9176 33.0497C24.8474 33.1981 24.7452 33.3292 24.6183 33.4334C24.4913 33.5376 24.3429 33.6124 24.1836 33.6523C24.0243 33.6923 23.8581 33.6964 23.697 33.6644H21.9961C21.8802 36.3622 20.9396 38.9595 19.3012 41.106C18.4265 42.2604 17.3063 43.2063 16.0216 43.8753C17.3081 44.633 18.4144 45.6614 19.264 46.8891C20.8525 49.1528 21.7951 51.806 21.9908 54.5645H23.6279C23.789 54.5325 23.9552 54.5367 24.1145 54.5766C24.2738 54.6166 24.4222 54.6913 24.5492 54.7955C24.6761 54.8997 24.7783 55.0308 24.8485 55.1793C24.9187 55.3277 24.9552 55.4899 24.9552 55.6541C24.9552 55.8184 24.9187 55.9806 24.8485 56.129C24.7783 56.2775 24.6761 56.4085 24.5492 56.5128C24.4222 56.617 24.2738 56.6917 24.1145 56.7317C23.9552 56.7716 23.789 56.7758 23.6279 56.7438H1.65949Z" fill="#444444"/>
</svg>
