<svg width="60" height="61" viewBox="0 0 60 61" fill="none" xmlns="http://www.w3.org/2000/svg">
<path d="M9.87223 34.7837C7.55127 35.2723 5.15213 35.3212 2.82628 32.9318C1.27245 31.3389 0.495541 28.9593 0.588379 26.4673C6.53493 33.3814 13.7812 24.8353 4.98599 20.3937C9.23214 18.3806 13.2389 20.2716 15.3644 24.1855C16.3709 26.0325 16.9719 26.9999 17.7391 27.6596C17.8781 27.7815 18.025 27.8942 18.1788 27.9967C18.5041 27.0641 19.1664 26.2867 20.0356 25.8175C20.5265 25.5632 21.0708 25.4292 21.6236 25.4266C23.1775 25.4266 25.1124 26.355 25.4398 27.9381C25.5098 27.9184 25.5821 27.9086 25.6548 27.9088H26.7835C26.8435 27.9013 26.9043 27.9013 26.9643 27.9088C27.5609 27.9636 28.123 28.2127 28.5644 28.6179C29.0057 29.023 29.3019 29.5618 29.4074 30.1516C29.5158 30.1 29.6343 30.0733 29.7543 30.0734H30.8831C30.9431 30.0659 31.0038 30.0659 31.0639 30.0734C32.6812 30.3226 33.336 31.3194 33.5656 32.5751H33.6926H34.8214C34.8814 32.5677 34.9421 32.5677 35.0022 32.5751C36.8589 32.8634 37.587 34.0801 37.8704 35.546C41.2908 35.0231 44.9896 32.9709 48.6201 36.6845C49.4103 37.5549 50.0157 38.5766 50.3995 39.6877C50.7833 40.7989 50.9377 41.9764 50.8531 43.149C44.9066 36.2349 37.6603 44.781 46.4555 49.2226C42.8055 50.9523 39.3265 49.7943 37.0739 46.9456C36.7664 47.7799 36.3837 48.5845 35.9305 49.3496C35.7449 49.6525 35.5543 49.9653 35.31 50.3953C35.3075 50.4065 35.3075 50.4182 35.31 50.4295C35.1181 50.7677 34.906 51.094 34.6748 51.4067H35.4566C35.7802 51.408 36.0901 51.5371 36.3189 51.7659C36.5477 51.9947 36.6769 52.3047 36.6781 52.6283V59.2784C36.6769 59.602 36.5477 59.912 36.3189 60.1408C36.0901 60.3696 35.7802 60.4987 35.4566 60.5H17.7537C17.4302 60.4987 17.1202 60.3696 16.8914 60.1408C16.6626 59.912 16.5335 59.602 16.5322 59.2784V52.6771C16.5335 52.3535 16.6626 52.0436 16.8914 51.8148C17.1202 51.586 17.4302 51.4569 17.7537 51.4556H18.1788C17.9657 50.856 17.8182 50.2351 17.7391 49.6037L11.6508 39.6309L11.6215 39.5967C11.1397 38.9529 10.7301 38.2581 10.3999 37.5249C10.1154 36.9077 9.93701 36.2469 9.87223 35.5704C9.85256 35.3151 9.85256 35.0586 9.87223 34.8033V34.7837ZM54.8256 18.5174C54.7912 18.3856 54.7296 18.2625 54.6448 18.1558C54.5719 18.0592 54.4762 17.982 54.3663 17.9311C54.2621 17.8694 54.1451 17.8326 54.0243 17.8236C53.899 17.82 53.7739 17.8348 53.6529 17.8676H53.6236L50.0273 18.9621C49.6901 19.0717 49.3245 19.0554 48.9984 18.9162C48.6723 18.7769 48.4077 18.5241 48.2536 18.2047C48.068 17.892 47.8872 17.5842 47.6673 17.2275C47.4474 16.8708 47.1787 16.5532 46.9881 16.2502C46.7975 15.9473 46.519 15.6541 46.2259 15.3511C45.9327 15.0482 45.7372 14.7941 45.4001 14.457C45.1848 14.2286 45.0461 13.9388 45.0032 13.6279C44.9603 13.317 45.0153 13.0005 45.1607 12.7224L47.0712 9.13096C47.1367 9.02527 47.1766 8.90569 47.1876 8.78181C47.1987 8.65793 47.1805 8.53319 47.1347 8.41757C47.1031 8.30367 47.0519 8.19617 46.9832 8.09997C46.9024 7.99949 46.8007 7.9178 46.6852 7.86054L42.1605 5.45163C42.0557 5.39505 41.944 5.35234 41.8282 5.32458C41.6927 5.32196 41.5576 5.34009 41.4276 5.37833C41.3155 5.40433 41.2126 5.46003 41.1295 5.53958C41.029 5.6204 40.9473 5.7221 40.8901 5.83764L39.131 9.13585C38.9639 9.45012 38.6924 9.69625 38.3632 9.83182C38.0341 9.9674 37.668 9.98393 37.328 9.87856C36.9273 9.77595 36.5511 9.67822 36.2188 9.60981C35.8866 9.54141 35.4664 9.473 35.0657 9.41925C34.6766 9.36814 34.2852 9.33715 33.893 9.32641C33.4825 9.2971 33.1014 9.32641 32.7349 9.2971C32.4066 9.30954 32.0835 9.21129 31.8177 9.01812C31.5519 8.82495 31.3587 8.54806 31.2691 8.2319L30.0475 4.27404C30.0475 4.24472 30.0475 4.24472 30.0475 4.22518C30.0145 4.11118 29.9651 4.00256 29.9009 3.90269C29.7361 3.73551 29.5186 3.63025 29.2853 3.60463C29.1494 3.59352 29.0127 3.61186 28.8846 3.65838L24.0423 5.13891C23.9104 5.17042 23.787 5.23047 23.6807 5.31481C23.5848 5.38981 23.5064 5.48486 23.4511 5.59333C23.3884 5.69858 23.3532 5.81785 23.3485 5.94025C23.3428 6.064 23.3576 6.18784 23.3925 6.30672V6.33115L24.4919 9.92253C24.5942 10.2613 24.5739 10.6253 24.4345 10.9506C24.2951 11.2759 24.0455 11.5416 23.7296 11.7011C23.4169 11.8819 23.1091 12.0627 22.7524 12.2875C22.3957 12.5122 22.0781 12.7517 21.7751 12.9667C21.4722 13.1817 21.1399 13.4553 20.8418 13.7191C20.5438 13.983 20.2799 14.2078 19.9477 14.5498C19.7168 14.7679 19.4232 14.9078 19.1084 14.9499C18.7936 14.992 18.4736 14.9341 18.1935 14.7843L14.607 12.8738C14.4941 12.811 14.3692 12.7727 14.2405 12.7614C14.1273 12.761 14.0143 12.7724 13.9034 12.7956C13.7919 12.8202 13.6889 12.8742 13.6053 12.952C13.5035 13.0334 13.4216 13.137 13.3659 13.255L13.1704 13.6165C12.0876 13.4071 10.9808 13.3495 9.88201 13.4455L10.7518 11.8086C10.9988 11.3457 11.3302 10.933 11.729 10.5919C12.1365 10.2634 12.6023 10.0147 13.102 9.85901C13.6041 9.70231 14.1324 9.64749 14.6559 9.69777C15.1706 9.7683 15.6677 9.934 16.1217 10.1864L18.775 11.6034L18.9704 11.4422C19.3124 11.1441 19.6789 10.8607 20.0454 10.5724C20.4119 10.2841 20.8076 9.99583 21.1692 9.76129L21.2963 9.66845L20.5633 7.2009C20.3983 6.7023 20.3433 6.17386 20.4021 5.65196C20.4477 5.12799 20.6007 4.61902 20.8516 4.15677C21.0911 3.69304 21.4238 3.28381 21.8289 2.95476C22.2361 2.62312 22.7042 2.37415 23.2068 2.22182L28.0881 0.707087C28.5842 0.545088 29.1062 0.477146 29.6273 0.506751C30.1516 0.550542 30.661 0.703674 31.1225 0.956285C31.5928 1.21317 32.0092 1.55824 32.3489 1.97262C32.6725 2.37546 32.9043 2.84403 33.0281 3.34566L33.9223 6.21876C33.9922 6.22589 34.0626 6.22589 34.1324 6.21876C34.5722 6.2432 35.0266 6.29694 35.5054 6.34092C35.9843 6.3849 36.4192 6.47774 36.8785 6.56569C36.9447 6.56889 37.0095 6.58551 37.069 6.61455L38.2711 4.35222C38.5124 3.88933 38.8458 3.48065 39.2508 3.15127C39.6558 2.82189 40.1239 2.57876 40.6262 2.43682H40.6555C41.1464 2.28311 41.6636 2.23156 42.1752 2.28534C42.6866 2.33766 43.1838 2.48515 43.641 2.72022L48.1608 5.13402C48.624 5.38075 49.0367 5.71224 49.3775 6.11127C49.7157 6.51413 49.9654 6.98359 50.1104 7.48919C50.2675 7.98946 50.3223 8.51622 50.2717 9.03813C50.2041 9.55352 50.0382 10.0512 49.783 10.504L48.366 13.1621C48.4198 13.2159 48.4784 13.2989 48.5322 13.3527C48.8253 13.6996 49.1136 14.0612 49.397 14.4276C49.6804 14.7941 49.9785 15.1899 50.2081 15.5515L50.301 15.6834L52.7685 14.9456C53.2675 14.7821 53.7959 14.7287 54.3175 14.7892C54.8407 14.8355 55.3492 14.9867 55.8127 15.2339C56.277 15.4724 56.6864 15.8052 57.0147 16.2111V16.2502C57.3463 16.6575 57.5953 17.1255 57.7476 17.6281L59.2135 22.4704H59.2379C59.3864 22.9658 59.4444 23.4839 59.4089 23.9998C59.3629 24.5237 59.2099 25.0326 58.9594 25.495C58.7115 25.9531 58.3801 26.3608 57.9821 26.697C57.5765 27.023 57.1046 27.2565 56.5993 27.3811L53.7262 28.2753C53.7262 28.3485 53.7262 28.4316 53.7262 28.5049C53.7262 28.9496 53.6529 29.3991 53.609 29.8291C53.609 29.8291 53.609 29.8828 53.609 29.9024C53.5508 30.3691 53.4677 30.8323 53.3598 31.2901L53.3256 31.4562L55.6074 32.6729C56.0748 32.9089 56.4863 33.2421 56.8143 33.6501C57.1384 34.0532 57.3792 34.5166 57.5228 35.0134V35.0476C57.6766 35.5368 57.7281 36.0524 57.6743 36.5623C57.6227 37.0745 57.4734 37.5721 57.2346 38.0282L56.873 38.7074L56.228 38.3605C55.7462 36.9847 55.0286 35.7033 54.1074 34.5736C54.039 34.4808 53.9657 34.3928 53.8875 34.3049C52.8538 33.0709 51.6036 32.036 50.1984 31.251C50.2423 31.0702 50.2863 30.8845 50.3254 30.6988C50.3889 30.3324 50.4622 29.9463 50.5062 29.5164C50.5062 29.5164 50.5062 29.4626 50.5062 29.4431C50.56 29.0473 50.5893 28.6906 50.6186 28.3339C50.6479 27.9772 50.6626 27.557 50.6528 27.1758C50.6403 26.8475 50.7386 26.5244 50.9318 26.2586C51.1249 25.9928 51.4018 25.7996 51.718 25.71L55.671 24.4884C55.671 24.4884 55.7052 24.4884 55.7247 24.4884C55.8375 24.4564 55.9447 24.4069 56.0423 24.3418C56.1287 24.2687 56.1972 24.1768 56.2426 24.0731C56.3009 23.966 56.3359 23.8477 56.3453 23.7262C56.3564 23.5903 56.338 23.4536 56.2915 23.3255L54.8256 18.4881V18.5174ZM38.2124 17.0076C38.8975 17.3666 39.5414 17.7991 40.1327 18.2975C40.724 18.7839 41.2642 19.329 41.7452 19.9247C42.1988 20.5101 42.6071 21.1292 42.9667 21.7766C43.3169 22.4179 43.5986 23.0943 43.8072 23.7946C44.0286 24.4996 44.1696 25.2274 44.2274 25.9641C44.308 26.7013 44.308 27.4452 44.2274 28.1824C44.2274 28.2362 44.2274 28.2753 44.2274 28.3095C44.168 28.9317 44.0569 29.5478 43.8951 30.1516C43.0938 30.2297 42.2973 30.3568 41.5106 30.4985L40.7875 30.1125C40.851 29.9463 40.9047 29.7753 40.9585 29.5994C41.1066 29.0979 41.2112 28.5846 41.2712 28.0651C41.2663 28.0295 41.2663 27.9933 41.2712 27.9576C41.3276 27.3988 41.3276 26.8356 41.2712 26.2768C41.2198 25.7424 41.1184 25.214 40.9683 24.6985C40.8141 24.1885 40.6044 23.6969 40.3428 23.2327C40.0765 22.7369 39.764 22.2674 39.4095 21.8303C39.053 21.3909 38.6518 20.9897 38.2124 20.6332C37.3161 19.9052 36.2874 19.3577 35.183 19.0207C34.6815 18.8726 34.1681 18.768 33.6487 18.708C33.6132 18.715 33.5767 18.715 33.5412 18.708C32.9821 18.6565 32.4194 18.6565 31.8603 18.708C31.3258 18.761 30.7974 18.8641 30.2821 19.0158C29.772 19.17 29.2804 19.3797 28.8162 19.6413C28.3205 19.9059 27.851 20.2167 27.4138 20.5697C26.98 20.9236 26.5822 21.3197 26.2265 21.7521C26.1141 21.884 26.0017 22.0257 25.8942 22.1772L23.2263 20.7553C23.4394 20.4327 23.6711 20.1227 23.9202 19.8269C24.3935 19.24 24.9256 18.7029 25.5082 18.2243C26.0923 17.7675 26.7116 17.3574 27.3601 16.9978C28.0179 16.6498 28.7065 16.3635 29.4172 16.1427C30.1157 15.9268 30.8345 15.7827 31.5623 15.7127C32.3013 15.6346 33.0465 15.6346 33.7855 15.7127C33.8344 15.7127 33.8783 15.7372 33.9076 15.7127C34.6276 15.7816 35.3393 15.919 36.0332 16.1232C36.7729 16.3499 37.4908 16.6426 38.1782 16.9978L38.2124 17.0076ZM19.6985 28.7346V28.7834V28.8469V28.9496V29.0033V29.057V29.2232V29.3356V29.3942V29.5066V29.5701V29.6336V29.8242V29.8877V29.9561V30.0783V39.108C19.7072 39.2208 19.6925 39.3342 19.6553 39.4411C19.6181 39.5479 19.5593 39.6459 19.4824 39.729C19.4056 39.812 19.3124 39.8782 19.2087 39.9235C19.1051 39.9688 18.9932 39.9922 18.88 39.9922C18.7669 39.9922 18.655 39.9688 18.5513 39.9235C18.4476 39.8782 18.3545 39.812 18.2776 39.729C18.2007 39.6459 18.1419 39.5479 18.1047 39.4411C18.0675 39.3342 18.0528 39.2208 18.0616 39.108V37.5933C18.0186 37.569 17.9778 37.5412 17.9394 37.5102L16.1266 36.2545L14.006 34.5101C13.7894 34.3276 13.5495 34.1748 13.2926 34.0557H12.7405C12.5064 33.9972 12.2604 34.0074 12.032 34.085C11.9445 34.122 11.8653 34.176 11.799 34.244C11.7328 34.3119 11.6807 34.3924 11.6459 34.4808H11.5971C11.4972 34.8147 11.464 35.165 11.4994 35.5118C11.5496 36.0032 11.6834 36.4825 11.8951 36.9288C12.178 37.5283 12.5254 38.0952 12.931 38.6194C12.931 38.6194 12.9652 38.6683 12.9799 38.6976L19.1854 48.8414C19.2606 48.9522 19.3076 49.0797 19.3222 49.2128C19.3751 49.9972 19.5932 50.7615 19.9623 51.4556H32.3489C32.974 50.9813 33.4877 50.3759 33.8539 49.6819C33.8619 49.6661 33.8718 49.6514 33.8832 49.6379C34.0591 49.3349 34.2937 48.9489 34.5233 48.5727C35.1264 47.5246 35.5959 46.4051 35.9208 45.2403V45.211V45.1621V45.1328V45.0839V45.0497V45.0008L35.9501 44.9031V44.8543V44.8103V44.7614V44.7272V44.6784V44.6295V44.5806V44.4829V44.434V44.3901V44.3412V44.2923V44.2533V44.2044V44.1702V44.1213V44.0725V44.0236V43.9894V43.9405V43.9014V43.8575V43.8086V43.7646V43.7158V43.6669V43.6229V43.4812V43.4324V43.3835V43.3395V43.2907V43.2467V43.1978V42.7874V42.2988L35.8866 39.5136C35.8842 39.4745 35.8842 39.4354 35.8866 39.3963C35.8866 39.3572 35.8866 39.0934 35.8866 38.7416V38.6536V38.0526V37.9598V37.3295V37.2366V36.7138V36.6307V36.5428V36.4499V36.406V36.0932V36.0541V36.0102V35.9662V35.9222V35.888V35.844V35.8049V35.761V35.6877C35.8275 35.329 35.6608 34.9968 35.4086 34.735C35.1564 34.4732 34.8307 34.2942 34.4744 34.2218H33.6878C33.6878 34.4515 33.6878 34.6762 33.6878 34.9059V34.9547V34.9938V35.1991V35.2479V35.2821V35.3065V35.331V35.3554C33.6584 35.8098 33.634 36.2545 33.634 36.6747C33.634 36.8924 33.5475 37.1012 33.3936 37.2551C33.2396 37.4091 33.0308 37.4956 32.8131 37.4956C32.5954 37.4956 32.3866 37.4091 32.2327 37.2551C32.0787 37.1012 31.9922 36.8924 31.9922 36.6747C31.9922 36.2545 32.0264 35.7659 32.0558 35.2577V35.0964V35.0134V34.9401V34.7788V34.6958V34.6225V34.5394V34.8082V34.642V34.4808V34.3195V34.2218C32.0558 32.9905 31.8359 31.9204 30.844 31.7396H29.7592C29.7008 31.7473 29.6417 31.7473 29.5833 31.7396C29.5833 32.1989 29.5833 32.6778 29.5442 33.1419V33.6306C29.5149 34.085 29.4905 34.5248 29.4905 34.945C29.4905 35.1627 29.404 35.3715 29.2501 35.5254C29.0961 35.6794 28.8873 35.7659 28.6696 35.7659C28.4519 35.7659 28.2431 35.6794 28.0891 35.5254C27.9352 35.3715 27.8487 35.1627 27.8487 34.945C27.8487 34.5248 27.8829 34.0361 27.9122 33.528V33.4449V33.3716V33.2934V33.2104V33.1273V33.0442V32.8879V32.8097V32.7266V32.6582V32.5751V32.4921V32.4579C27.9513 31.0702 27.7998 29.79 26.7053 29.5896H25.6499C25.5788 29.5902 25.508 29.5803 25.4398 29.5603V32.7315C25.4398 32.9492 25.3533 33.158 25.1994 33.312C25.0454 33.4659 24.8366 33.5524 24.6189 33.5524C24.4012 33.5524 24.1924 33.4659 24.0385 33.312C23.8845 33.158 23.798 32.9492 23.798 32.7315V28.7248C23.798 27.5912 22.6742 27.1026 21.6236 27.1026C21.3281 27.1032 21.0368 27.1735 20.7734 27.3078C20.2288 27.6343 19.8328 28.1601 19.6691 28.7736L19.6985 28.7346ZM17.8319 34.7104L17.0599 34.3928C16.709 34.2498 16.3501 34.1274 15.9849 34.0264L17.1625 35.0036L17.8319 35.5509V34.7104Z" fill="#444444"/>
</svg>
