<svg width="54" height="61" viewBox="0 0 54 61" fill="none" xmlns="http://www.w3.org/2000/svg">
<path fill-rule="evenodd" clip-rule="evenodd" d="M35.7977 19.6776C36.0019 19.8031 36.178 19.9693 36.3152 20.1658L37.6627 22.0259C37.7994 22.2178 37.9003 22.4328 37.9605 22.6606C38.0094 22.8924 38.0094 23.1318 37.9605 23.3636C37.9313 23.5943 37.8601 23.8176 37.7506 24.0227C37.6248 24.2186 37.4583 24.3851 37.2624 24.5109L36.1639 25.3165C36.1639 25.3458 36.1639 25.3848 36.1639 25.4141C36.2176 25.6094 36.2615 25.8096 36.3055 26C36.3055 26 36.3055 26.0244 36.3055 26.0342C36.3494 26.2246 36.3787 26.4345 36.408 26.6542V26.7323L37.5651 26.9227C37.8017 26.9569 38.0282 27.0419 38.229 27.1717C38.4229 27.3001 38.5889 27.4661 38.7173 27.6599C38.8561 27.8475 38.9542 28.062 39.0053 28.2897C39.0492 28.5187 39.0492 28.754 39.0053 28.983L38.727 31.2825C38.6934 31.5176 38.6119 31.7433 38.4876 31.9456C38.3633 32.148 38.1989 32.3228 38.0045 32.4591C37.8131 32.5987 37.5956 32.6984 37.3649 32.752C37.131 32.7961 36.8909 32.7961 36.657 32.752L35.3095 32.547C35.2918 32.5806 35.2722 32.6132 35.2509 32.6446C35.1484 32.8253 35.0312 33.001 34.9189 33.1768C34.8066 33.3526 34.6748 33.5332 34.5528 33.665L34.5088 33.7187L35.1777 34.6756L35.207 34.7098C35.3416 34.9016 35.4347 35.1195 35.4804 35.3494C35.5244 35.5784 35.5244 35.8137 35.4804 36.0426C35.4421 36.2699 35.3627 36.4883 35.246 36.6871C35.1197 36.8907 34.9537 37.0667 34.7578 37.2046L32.9026 38.5814C32.7148 38.7241 32.5008 38.8286 32.2728 38.889C32.0363 38.9405 31.7915 38.9405 31.5551 38.889C31.317 38.8483 31.0886 38.7639 30.8814 38.64C30.6861 38.5134 30.5197 38.347 30.3931 38.1517L29.612 37.0533C29.5764 37.0683 29.5383 37.0765 29.4997 37.0777C29.3044 37.1216 29.1042 37.1753 28.8943 37.2192C28.6844 37.2632 28.4793 37.2925 28.2694 37.3218C28.2405 37.329 28.2104 37.329 28.1815 37.3218L27.9862 38.4789C27.9515 38.7139 27.8666 38.9387 27.7372 39.1379C27.6094 39.3322 27.4433 39.4983 27.249 39.6262C27.0601 39.7616 26.8459 39.8579 26.6192 39.9093C26.3917 39.9604 26.1569 39.9703 25.9259 39.9386L23.6313 39.5627C23.279 39.506 22.9516 39.3458 22.6907 39.1023C22.4299 38.8588 22.2474 38.5432 22.1667 38.1957C22.12 37.9637 22.12 37.7247 22.1667 37.4926L22.3863 36.1452L22.2887 36.0866C22.1081 35.9792 21.9323 35.8669 21.7565 35.7497C21.5808 35.6325 21.4001 35.5105 21.2683 35.3835L21.1512 35.3738L20.204 36.0622H20.1698C19.978 36.1968 19.7602 36.2899 19.5303 36.3356C19.3013 36.3797 19.066 36.3797 18.837 36.3356C18.6219 36.3079 18.4135 36.2418 18.2218 36.1403C18.0218 36.0215 17.8462 35.8657 17.7043 35.6814L16.3617 33.7871C16.2238 33.5977 16.1228 33.384 16.0639 33.1573C16.007 32.9255 15.9987 32.6845 16.0395 32.4494C16.0688 32.2022 16.1468 31.9632 16.269 31.7463C16.4014 31.5559 16.5667 31.3906 16.7572 31.2581L17.8557 30.477C17.8419 30.441 17.8337 30.4031 17.8313 30.3647C17.7873 30.1743 17.7336 29.9692 17.6897 29.7593C17.6457 29.5493 17.6067 29.3443 17.5872 29.1392V29.0514L16.4398 28.8609C16.2046 28.83 15.9794 28.7466 15.7808 28.6168C15.5861 28.4894 15.4199 28.3232 15.2925 28.1286C15.1571 27.9397 15.0608 27.7255 15.0094 27.4988C14.9583 27.2713 14.9484 27.0365 14.9801 26.8055L15.356 24.5109C15.3929 24.278 15.4741 24.0542 15.5952 23.8518C15.7233 23.6496 15.889 23.4739 16.0834 23.3343C16.276 23.1937 16.4953 23.094 16.7279 23.0414C16.9602 22.9973 17.1987 22.9973 17.4309 23.0414L18.7735 23.2611L18.837 23.1634C18.9395 22.9877 19.0567 22.8119 19.169 22.6362C19.2813 22.4604 19.4131 22.2749 19.5352 22.1479L19.5791 22.0894L18.9005 21.1129C18.7581 20.9214 18.6583 20.7017 18.6075 20.4685C18.5509 20.2383 18.5426 19.9989 18.5831 19.7654C18.6181 19.5289 18.7029 19.3026 18.8321 19.1015C18.9591 18.8998 19.1251 18.7255 19.3203 18.5888L21.1512 17.2218C21.343 17.0851 21.558 16.9842 21.7858 16.924C22.0176 16.8751 22.2571 16.8751 22.4889 16.924C22.7238 16.9648 22.949 17.0493 23.1529 17.173C23.3476 17.3002 23.5139 17.4664 23.6411 17.6612L24.4466 18.7597L24.5345 18.7353C24.7298 18.6767 24.93 18.6377 25.1448 18.5839C25.3596 18.5302 25.5549 18.5107 25.7648 18.4814C25.7939 18.4766 25.8236 18.4766 25.8527 18.4814L26.0333 17.2999C26.0689 17.0636 26.1537 16.8374 26.2823 16.636C26.4111 16.4425 26.5771 16.2765 26.7706 16.1477C26.96 16.0131 27.1739 15.9169 27.4004 15.8646C27.6294 15.8129 27.8659 15.803 28.0985 15.8353L30.3883 16.2112C30.6228 16.2481 30.8481 16.3293 31.0522 16.4504C31.2561 16.5745 31.431 16.741 31.5649 16.9386C31.7049 17.1304 31.806 17.3477 31.8627 17.5782C31.9068 17.8121 31.9068 18.0522 31.8627 18.2861L31.6381 19.6287L31.7357 19.6873C31.9164 19.7947 32.0921 19.907 32.2679 20.0242C32.4436 20.1414 32.6243 20.2683 32.7561 20.3904L32.8098 20.4294L33.7863 19.7557C33.9749 19.6115 34.1935 19.5115 34.4258 19.4627C34.6576 19.4067 34.8981 19.3968 35.1337 19.4334C35.3673 19.4737 35.591 19.5582 35.7928 19.6824V19.7069L35.7977 19.6776ZM16.0493 41.0225C15.3511 40.2267 14.6432 39.4114 13.9597 38.4886C13.1979 37.4666 12.5435 36.3688 12.0068 35.2127C11.9385 35.0711 11.875 34.9295 11.8115 34.7879C10.9648 32.9785 10.4474 31.0326 10.2834 29.0416C10.2395 28.5534 10.2199 28.0261 10.2248 27.5232V27.4598V27.3328C10.2508 25.9929 10.4343 24.6607 10.7716 23.3636C11.1534 21.9134 11.6988 20.5114 12.3974 19.1845L12.456 19.0722C13.3405 17.5495 14.4629 16.1782 15.7808 15.0102C17.0144 13.9316 18.4098 13.0535 19.916 12.408C21.7135 11.5745 23.6438 11.0638 25.6184 10.8994C28.9498 10.6249 32.2876 11.349 35.2058 12.9794C38.124 14.6098 40.4903 17.0725 42.003 20.0535L42.042 20.1218L42.0762 20.1951C42.2422 20.5271 42.3984 20.8688 42.54 21.2154L42.5693 21.2936V21.3229V21.3619V21.4058C42.9256 22.3045 43.2033 23.2323 43.3993 24.1789V24.2229V24.2717V24.3108C43.5747 25.1813 43.6792 26.0646 43.7117 26.952C43.8702 29.9721 43.2071 32.9788 41.793 35.6521L53.0904 45.8168L48.4914 50.7868L37.8678 41.1836L34.6748 46.2757L34.2794 48.1358L34.1573 49.6737L34.1964 51.6559C34.2549 52.3218 34.2549 52.9916 34.1964 53.6576C34.1411 54.367 33.9764 55.0636 33.7081 55.7227C33.6374 55.9159 33.556 56.105 33.464 56.2891C32.6987 57.8769 31.4014 59.1465 29.7975 59.8775C28.9905 60.2536 28.1161 60.4639 27.2263 60.4957C26.3365 60.5276 25.4494 60.3804 24.6175 60.063C24.4417 59.9946 24.2709 59.9214 24.1293 59.8433L24.0609 59.8042C23.1818 59.3874 22.4176 58.7623 21.8347 57.9832L21.781 57.9051C21.2954 57.2063 20.8877 56.4565 20.5653 55.669C20.5274 55.5868 20.5011 55.4997 20.4872 55.4103C20.3152 54.7521 20.1863 54.0835 20.1015 53.4086C20.0331 52.8227 20.0136 52.2173 19.999 51.3239C19.9179 49.4512 19.5149 47.6064 18.8077 45.8705C18.1672 44.1109 17.2347 42.472 16.0493 41.0225ZM22.9283 55.3663L31.8383 54.0433C31.8773 53.848 31.9066 53.6478 31.9261 53.4476C31.9701 52.9033 31.9701 52.3564 31.9261 51.8121V51.2799L22.3229 52.7055C22.3229 52.8471 22.3473 52.9887 22.3619 53.1303C22.4352 53.6977 22.5428 54.2602 22.6842 54.8146L22.9283 55.3615V55.3663ZM30.7691 56.3037L24.2709 57.2802C24.5115 57.4726 24.7736 57.6364 25.052 57.7684H25.1008L25.4377 57.9148C25.9872 58.1224 26.5728 58.2177 27.1598 58.1951C27.7468 58.1724 28.3233 58.0323 28.8552 57.783C29.6063 57.4409 30.2655 56.9256 30.7788 56.2793L30.7691 56.3037ZM22.2448 50.6111L31.892 49.1757L31.9945 47.8917C31.9897 47.8414 31.9897 47.7907 31.9945 47.7404L32.2191 46.8811L21.9274 48.3995C22.0833 49.1286 22.1894 49.8675 22.2448 50.6111ZM21.3904 46.3929L33.0197 44.6646L34.1378 42.8777C31.922 43.9111 29.5078 44.4499 27.0629 44.4566C24.618 44.4634 22.2009 43.9379 19.9794 42.9168C20.3309 43.6149 20.6532 44.3424 20.9559 45.0796C21.1267 45.5141 21.2781 45.9535 21.4441 46.3929H21.3904ZM52.0798 23.7688C52.5139 23.7439 52.9408 23.8873 53.2718 24.1692C53.6028 24.4511 53.8124 24.8498 53.8569 25.2823V25.3555C53.8838 25.7766 53.7494 26.192 53.481 26.5175C53.1999 26.8646 52.7925 27.0859 52.3483 27.1327L48.34 27.5525C48.1198 27.5759 47.8972 27.5552 47.6851 27.4915C47.473 27.4278 47.2757 27.3224 47.1049 27.1815C46.9324 27.0417 46.7893 26.8693 46.6838 26.6741C46.5782 26.4789 46.5122 26.2647 46.4897 26.0439C46.4667 25.8245 46.4876 25.6027 46.5513 25.3914C46.615 25.1802 46.7202 24.9837 46.8607 24.8136C46.9993 24.637 47.1717 24.4899 47.3679 24.381C47.5641 24.272 47.7801 24.2033 48.0032 24.1789C49.3507 24.0373 50.7372 23.8567 52.0798 23.7493V23.7688ZM1.87141 29.149C1.43343 29.1575 1.00946 28.9946 0.689917 28.695C0.440628 28.4679 0.265228 28.1712 0.186419 27.8434C0.107611 27.5155 0.129021 27.1715 0.24788 26.856C0.366739 26.5404 0.577575 26.2678 0.853098 26.0734C1.12862 25.879 1.45615 25.7718 1.79329 25.7656L5.81621 25.6289C6.03743 25.6218 6.2579 25.6583 6.465 25.7364C6.6721 25.8145 6.86179 25.9326 7.0232 26.084C7.18462 26.2355 7.31461 26.4173 7.40573 26.619C7.49685 26.8207 7.54733 27.0384 7.55427 27.2596V27.3524C7.5505 27.7721 7.38833 28.1749 7.10023 28.4801C6.79335 28.8055 6.37058 28.9967 5.92362 29.0123C4.57614 29.0514 3.21401 29.1295 1.87141 29.149ZM6.8073 8.91234C6.4797 8.60805 6.2864 8.18609 6.26992 7.73928C6.25344 7.29248 6.41513 6.85742 6.71942 6.52983C7.0237 6.20224 7.44566 6.00894 7.89247 5.99246C8.33928 5.97598 8.77433 6.13767 9.10192 6.44195L12.0312 9.19062C12.3588 9.49491 12.5521 9.91687 12.5686 10.3637C12.5851 10.8105 12.4234 11.2455 12.1191 11.5731C11.8148 11.9007 11.3929 12.094 10.9461 12.1105C10.4993 12.127 10.0642 11.9653 9.73661 11.661L6.8073 8.91234ZM26.8243 2.16027C26.8217 2.12778 26.8217 2.09513 26.8243 2.06263C26.8542 1.63271 27.0483 1.23077 27.3664 0.939974C27.6845 0.649174 28.1021 0.491771 28.533 0.500332H28.6355C29.0625 0.532567 29.4611 0.726155 29.7504 1.04174C30.0396 1.35733 30.1979 1.77124 30.193 2.19933C30.1956 2.22694 30.1956 2.25472 30.193 2.28233L30.0953 6.22714C30.0977 6.26127 30.0977 6.29553 30.0953 6.32966C30.0638 6.74559 29.8794 7.13513 29.5778 7.42327C29.422 7.57885 29.237 7.70208 29.0334 7.78587C28.8298 7.86966 28.6116 7.91235 28.3914 7.91149C28.3591 7.91637 28.3262 7.91637 28.2938 7.91149C27.8757 7.88296 27.4835 7.69823 27.1953 7.39398C26.8836 7.07961 26.7082 6.65517 26.7071 6.21249C26.7047 6.18487 26.7047 6.15711 26.7071 6.12949L26.8047 2.18469L26.8243 2.16027ZM44.2048 7.63809C44.4559 7.27552 44.8371 7.02371 45.2692 6.93505C45.4865 6.89212 45.7103 6.89288 45.9274 6.93731C46.1445 6.98173 46.3506 7.06893 46.5336 7.19381C46.9002 7.44406 47.1543 7.82782 47.2416 8.26301C47.2846 8.47961 47.2839 8.70264 47.2395 8.91897C47.1951 9.13529 47.1078 9.34054 46.9828 9.52261L44.7468 12.8718C44.6238 13.0559 44.4657 13.2141 44.2816 13.3371C44.0974 13.4601 43.8909 13.5455 43.6737 13.5886C43.4564 13.6317 43.2329 13.6315 43.0157 13.5881C42.7986 13.5447 42.5921 13.4589 42.4082 13.3356C42.2221 13.2145 42.0617 13.0579 41.9364 12.8746C41.811 12.6914 41.7231 12.4852 41.6777 12.2678C41.6324 12.0505 41.6304 11.8263 41.672 11.6083C41.7136 11.3902 41.7978 11.1824 41.92 10.997L44.1707 7.6332L44.2048 7.63809ZM17.2454 38.9085L17.3968 39.0354C20.106 41.3292 23.5443 42.5819 27.0941 42.5685C30.6439 42.5551 34.0726 41.2764 36.7644 38.9622C38.2821 37.2609 39.5034 35.3168 40.3772 33.211L40.4016 33.1524C40.7965 32.183 41.0957 31.1774 41.2951 30.1498C41.4781 29.1632 41.5582 28.1602 41.5343 27.1571C41.5088 26.2581 41.396 25.3637 41.1974 24.4865C41.0115 23.6526 40.7551 22.8359 40.4309 22.0454C39.8838 20.7056 39.1147 19.4677 38.1558 18.3838C37.1498 17.2558 35.9737 16.2922 34.6699 15.5277C33.6593 14.9311 32.5851 14.4496 31.4672 14.0923C30.3357 13.7375 29.1682 13.5099 27.9862 13.4137C26.7875 13.3039 25.58 13.3334 24.388 13.5016C23.2788 13.6613 22.1924 13.9513 21.1512 14.3657L21.0633 14.4097C19.688 14.9651 18.4156 15.7474 17.2991 16.7238C16.1713 17.7174 15.2088 18.8842 14.4479 20.1804L14.4235 20.2244C13.7977 21.4018 13.308 22.6466 12.9637 23.9348C12.6558 25.0934 12.4918 26.2855 12.4755 27.4842C12.4689 28.6351 12.6017 29.7827 12.871 30.9017C13.1463 32.0551 13.539 33.1774 14.0427 34.2509C14.5239 35.2624 15.1062 36.2225 15.7808 37.1167C16.269 37.7465 16.7572 38.3275 17.2161 38.8938L17.2454 38.9085ZM27.0098 21.2984C28.3133 21.2984 29.5876 21.685 30.6715 22.4092C31.7554 23.1334 32.6002 24.1628 33.099 25.3671C33.5979 26.5715 33.7284 27.8967 33.4741 29.1752C33.2198 30.4537 32.592 31.6281 31.6703 32.5499C30.7485 33.4717 29.5741 34.0994 28.2956 34.3537C27.0171 34.608 25.6919 34.4775 24.4875 33.9786C23.2832 33.4798 22.2538 32.635 21.5296 31.5511C20.8054 30.4673 20.4188 29.193 20.4188 27.8894C20.4188 26.1414 21.1132 24.4649 22.3493 23.2289C23.5853 21.9928 25.2618 21.2984 27.0098 21.2984Z" fill="#444444"/>
</svg>
